<?xml version="1.0" standalone="no"?>
<!DOCTYPE svg PUBLIC "-//W3C//DTD SVG 20010904//EN"
 "http://www.w3.org/TR/2001/REC-SVG-20010904/DTD/svg10.dtd">
<svg version="1.0" xmlns="http://www.w3.org/2000/svg"
 width="192.000000pt" height="192.000000pt" viewBox="0 0 192.000000 192.000000"
 preserveAspectRatio="xMidYMid meet">
<metadata>
Created by potrace 1.11, written by Peter Selinger 2001-2013
</metadata>
<g transform="translate(0.000000,192.000000) scale(0.100000,-0.100000)"
fill="#000000" stroke="none">
<path d="M0 960 l0 -960 960 0 960 0 0 960 0 960 -960 0 -960 0 0 -960z m1084
675 c190 -50 336 -198 381 -387 20 -86 19 -150 -5 -244 -49 -194 -191 -414
-428 -664 l-71 -75 -78 84 c-281 302 -443 590 -443 786 0 132 65 280 164 373
130 121 314 170 480 127z"/>
<path d="M640 1245 l0 -175 45 0 44 0 3 93 3 92 34 -59 c39 -66 35 -67 87 19
l23 40 1 -92 0 -93 45 0 45 0 0 175 0 175 -50 0 c-27 0 -50 -3 -50 -7 0 -5
-14 -32 -31 -62 l-31 -54 -35 62 -34 61 -50 0 -49 0 0 -175z"/>
<path d="M1000 1414 c0 -4 25 -53 55 -109 51 -95 55 -108 55 -169 l0 -66 45 0
45 0 0 66 c0 62 4 75 55 169 30 57 55 106 55 109 0 3 -22 6 -48 6 l-48 0 -30
-61 -29 -62 -27 62 -28 61 -50 0 c-28 0 -50 -3 -50 -6z"/>
<path d="M630 990 c-24 -24 -25 -48 -4 -78 23 -34 68 -27 72 11 3 23 0 27 -20
26 -17 -1 -18 -3 -5 -6 9 -2 17 -13 17 -24 0 -31 -48 -25 -61 7 -14 39 12 76
49 68 21 -4 24 -3 12 5 -22 16 -38 13 -60 -9z"/>
<path d="M742 961 c-23 -55 -29 -90 -11 -58 5 9 21 17 34 17 13 0 29 -8 34
-17 20 -34 11 10 -13 61 l-22 50 -22 -53z m40 -13 c7 -15 4 -18 -16 -18 -23 0
-24 2 -13 30 7 17 14 25 16 18 2 -7 8 -21 13 -30z"/>
<path d="M837 1003 c-4 -3 -6 -31 -6 -62 1 -31 3 -47 6 -36 9 38 23 41 48 10
13 -17 24 -25 25 -19 0 6 -7 17 -16 25 -14 11 -14 13 0 21 9 5 16 18 16 28 0
28 -54 53 -73 33z m58 -33 c0 -9 -11 -16 -27 -18 -23 -3 -28 1 -28 18 0 17 5
21 28 18 16 -2 27 -9 27 -18z"/>
<path d="M1031 955 c-23 -60 -27 -80 -10 -52 5 9 21 17 34 17 13 0 29 -8 35
-17 10 -15 10 -14 6 8 -6 30 -34 99 -40 99 -3 0 -14 -25 -25 -55z m32 -23
c-21 -5 -25 2 -17 34 l7 29 13 -30 c10 -25 10 -31 -3 -33z"/>
<path d="M1237 1004 c-4 -4 -7 -31 -7 -61 0 -52 1 -53 29 -53 48 0 77 55 49
93 -15 18 -60 32 -71 21z m63 -33 c17 -33 -5 -71 -42 -71 -15 0 -18 9 -18 45
0 41 2 45 25 45 14 0 29 -8 35 -19z"/>
<path d="M932 948 l-2 -58 38 2 c36 1 36 1 5 5 -31 4 -32 6 -36 56 l-3 52 -2
-57z"/>
<path d="M1122 943 l1 -58 6 50 6 50 30 -47 c17 -27 33 -48 38 -48 4 0 6 26 5
58 l-1 57 -6 -45 -6 -45 -29 43 c-16 23 -33 42 -37 42 -5 0 -8 -26 -7 -57z"/>
</g>
</svg>
